<svg xmlns="http://www.w3.org/2000/svg" viewBox="0 0 24 24" role="img" aria-hidden="true">
  <circle cx="12" cy="12" r="12" fill="#24292f" />
  <path
    fill="#ffffff"
    d="M12 .296c-6.63 0-12 5.373-12 12 0 5.303 3.438 9.8 8.205 11.385.6.113.82-.258.82-.577 0-.285-.01-1.04-.015-2.04-3.338.724-4.042-1.61-4.042-1.61-.546-1.385-1.333-1.755-1.333-1.755-1.089-.744.084-.729.084-.729 1.205.084 1.838 1.236 1.838 1.236 1.07 1.835 2.809 1.305 3.495.998.108-.776.418-1.305.762-1.604-2.665-.3-5.466-1.333-5.466-5.93 0-1.31.468-2.381 1.236-3.221-.123-.303-.535-1.524.117-3.176 0 0 1.008-.322 3.301 1.23a11.52 11.52 0 0 1 3.003-.404c1.018.005 2.042.138 3.003.404 2.291-1.552 3.297-1.23 3.297-1.23.653 1.653.241 2.874.118 3.176.77.84 1.235 1.911 1.235 3.221 0 4.609-2.807 5.625-5.479 5.921.43.371.823 1.102.823 2.222 0 1.606-.015 2.898-.015 3.293 0 .319.216.694.825.576C20.565 21.796 24 17.299 24 12.296c0-6.627-5.373-12-12-12"
  />
</svg>
